<?xml version="1.0" encoding="UTF-8"?>
<svg width="36px" height="36px" viewBox="0 0 36 36" version="1.1" xmlns="http://www.w3.org/2000/svg" xmlns:xlink="http://www.w3.org/1999/xlink">
    <!-- Generator: sketchtool 52.5 (67469) - http://www.bohemiancoding.com/sketch -->
    <title>37727FDF-29A5-4271-8414-89A81FC0E57C</title>
    <desc>Created with sketchtool.</desc>
    <g id="Symbols" stroke="none" stroke-width="1" fill="none" fill-rule="evenodd">
        <g id="ICONS-/-Social-/-Twitter" fill-rule="nonzero">
            <g id="twitter">
                <path d="M18,0 C8.05333333,0 0,8.05333333 0,18 C0,27.9466667 8.05333333,36 18,36 C27.9466667,36 36,27.9466667 36,18 C36,8.05333333 27.9466667,0 18,0 Z" id="Shape" fill="#1DA1F3"></path>
                <path d="M26.9044559,14.3163653 C26.9158447,14.4985865 26.9158447,14.6921966 26.9158447,14.8858066 C26.9158447,20.6599417 22.6222571,27.3337941 14.7753556,27.3337941 C12.3723131,27.3337941 10.1287143,26.6049092 8.23816908,25.3749159 C8.56844505,25.4204712 8.91010985,25.4318601 9.25177464,25.4318601 C11.2448193,25.4318601 13.0898092,24.7371416 14.547579,23.5640925 C12.6798115,23.529926 11.1081534,22.2657663 10.5614897,20.5232758 C10.8234327,20.5802199 11.0853757,20.6029976 11.3587076,20.6029976 C11.7459277,20.6029976 12.121759,20.5460534 12.4862014,20.443554 C10.5387121,20.0449451 9.05816459,18.279677 9.05816459,16.1499664 L9.05816459,16.0930222 C9.63899475,16.4232982 10.2881579,16.6169083 10.9942651,16.6396859 C9.85538246,15.8538569 9.09233107,14.5213642 9.09233107,12.9952614 C9.09233107,12.1980435 9.29732995,11.446381 9.67316123,10.7972179 C11.7800942,13.4508145 14.9234103,15.1819161 18.4653354,15.3641373 C18.3970024,15.0452502 18.3514471,14.7149742 18.3514471,14.3733094 C18.3514471,11.9588782 20.26477,10 22.6108683,10 C23.8408615,10 24.9455777,10.5352749 25.7200179,11.378048 C26.699457,11.184438 27.6105632,10.8199955 28.4305587,10.3188871 C28.1116715,11.3438815 27.4397308,12.1980435 26.5514023,12.7333184 C27.4169531,12.6308189 28.2369486,12.3916536 29,12.0499888 C28.4647251,12.9269284 27.7358402,13.6899798 26.9044559,14.3163653 Z" id="Shape" fill="#FFFFFF"></path>
            </g>
        </g>
    </g>
</svg>