<?xml version="1.0" encoding="UTF-8"?>
<svg width="36px" height="36px" viewBox="0 0 36 36" version="1.1" xmlns="http://www.w3.org/2000/svg" xmlns:xlink="http://www.w3.org/1999/xlink">
    <!-- Generator: sketchtool 52.5 (67469) - http://www.bohemiancoding.com/sketch -->
    <title>85AE844B-A3BA-48BD-BEE2-C63D36ADB666</title>
    <desc>Created with sketchtool.</desc>
    <g id="Symbols" stroke="none" stroke-width="1" fill="none" fill-rule="evenodd">
        <g id="COMPONENTS-/-Footer-/-Light-/-Tablet" transform="translate(-24.000000, -461.000000)">
            <g id="Group-19" transform="translate(24.000000, 461.000000)">
                <g id="ICONS-/-Social-/Downloads">
                    <g id="orange-circle-awx-sun-logo">
                        <path d="M18,0 C8.05333333,0 0,8.05333333 0,18 C0,27.9466667 8.05333333,36 18,36 C27.9466667,36 36,27.9466667 36,18 C36,8.05333333 27.9466667,0 18,0 Z" id="Path" fill="#EE5723"></path>
                        <path d="M12.88,12.9466667 C15.7066667,10.12 20.2933333,10.12 23.12,12.9466667 C25.9333333,15.7733333 25.9466667,20.36 23.12,23.1733333 C20.2933333,26 15.7066667,26 12.8933333,23.1733333 C10.0666667,20.36 10.0666667,15.7733333 12.88,12.9466667 Z M18,9.90666667 C13.5333333,9.90666667 9.89333333,13.5466667 9.89333333,18.0133333 C9.89333333,22.48 13.5333333,26.12 18,26.12 C22.4666667,26.12 26.1066667,22.48 26.1066667,18.0133333 C26.1066667,13.5333333 22.4666667,9.90666667 18,9.90666667 Z M28.12,12.12 L24.6,11.36 L23.8266667,7.85333333 L20.4,8.94666667 L17.9733333,6.29333333 L15.56,8.96 L12.1333333,7.88 L11.3733333,11.4 L7.86666667,12.1733333 L8.97333333,15.6 L6.32,18.0266667 L8.98666667,20.44 L7.90666667,23.8666667 L11.4266667,24.6266667 L12.2,28.1333333 L15.6266667,27.04 L18.0533333,29.6933333 L20.4666667,27.0266667 L23.8933333,28.1066667 L24.6533333,24.5866667 L28.16,23.8 L27.0533333,20.3733333 L29.7066667,17.9466667 L27.04,15.5333333 L28.12,12.12 Z" id="Shape" fill="#FFFFFF"></path>
                    </g>
                </g>
            </g>
        </g>
    </g>
</svg>