<?xml version="1.0" encoding="UTF-8"?>
<svg width="36px" height="36px" viewBox="0 0 36 36" version="1.1" xmlns="http://www.w3.org/2000/svg" xmlns:xlink="http://www.w3.org/1999/xlink">
    <!-- Generator: sketchtool 52.5 (67469) - http://www.bohemiancoding.com/sketch -->
    <title>F091564D-74C2-472E-AC0E-0911B0577427</title>
    <desc>Created with sketchtool.</desc>
    <g id="Symbols" stroke="none" stroke-width="1" fill="none" fill-rule="evenodd">
        <g id="ICONS-/-Social-/-Facebook" fill-rule="nonzero">
            <g id="facebook">
                <path d="M20.8001922,5.06886159 C10.8535255,5.06886159 9.28593863,9.36913465 9.28593863,19.3158013 C9.28593863,27.4076462 7.28886276,24.3984853 14.6319975,26.6676565 C16.3151991,27.1877984 16.1451783,36 18,36 C19.7196422,36 21.3826934,35.7592885 22.9573215,35.3096975 C25.3654832,34.6221143 27.4229086,31.1749941 29.1295978,24.9683369 C30.7736987,22.7890457 31.5957491,20.2720283 31.5957491,17.4172847 C31.5957491,7.47061804 30.7468589,5.06886159 20.8001922,5.06886159 Z" id="Shape" fill="#FFFFFF"></path>
                <path d="M18,0 C8.05333333,0 0,8.05333333 0,18 C0,27.8933333 7.98666667,35.9333333 17.8666667,36 L17.8666667,23.6533333 L13.7066667,23.6533333 L13.7066667,18.84 L17.8666667,18.84 L17.8666667,15.2933333 C17.8666667,11.1733333 20.3866667,8.93333333 24.0533333,8.93333333 C25.8133333,8.93333333 27.32,9.06666667 27.76,9.12 L27.76,13.4266667 L25.2133333,13.4266667 C23.2133333,13.4266667 22.8266667,14.3733333 22.8266667,15.7733333 L22.8266667,18.84 L27.6,18.84 L26.9733333,23.6533333 L22.8266667,23.6533333 L22.8266667,35.3466667 C30.4266667,33.2266667 36,26.2666667 36,18 C36,8.05333333 27.9466667,0 18,0 Z" id="Shape" fill="#4167B2"></path>
            </g>
        </g>
    </g>
</svg>